<svg xmlns="http://www.w3.org/2000/svg" viewBox="0 0 650 215" role="img" aria-label="SelX">
<defs>
  <linearGradient id="selxGold" x1="0" y1="0" x2="1" y2="1">
    <stop offset="0" stop-color="#D8C4A8"/>
    <stop offset="0.52" stop-color="#C99B5D"/>
    <stop offset="1" stop-color="#A87832"/>
  </linearGradient>
  <linearGradient id="selxWarm" x1="0" y1="0" x2="1" y2="0">
    <stop offset="0" stop-color="#F7F2E8"/>
    <stop offset="0.68" stop-color="#D8C4A8"/>
    <stop offset="1" stop-color="#C99B5D"/>
  </linearGradient>
</defs>
<g transform="translate(16 -6) scale(.38)"><g fill="none" stroke-linecap="round" stroke-linejoin="round">
  <path d="M421 86 C350 28 235 28 162 82 C107 123 87 181 101 233 C105 247 101 258 93 274 L69 317 C63 328 69 337 82 339 L101 342 C108 343 111 350 106 356 L98 365 C93 371 96 378 105 381 C99 388 101 397 110 401 C105 421 115 442 134 448 C157 455 181 440 205 444 C229 448 240 467 237 489 C232 523 193 548 132 558" stroke="#2B1D15" stroke-width="8.5"/>
  <path d="M386 104 C326 70 220 72 171 109 C143 130 145 154 175 164 C201 173 232 166 262 181 C312 206 332 254 317 303 C307 338 281 365 270 399 C255 447 271 504 363 557" stroke="#2B1D15" stroke-width="7.2"/>
  <path d="M273 130 C306 139 334 148 365 151" stroke="#A87832" stroke-width="2.1"/>
  <path d="M315 144 C351 179 354 229 329 271" stroke="#A87832" stroke-width="1.8" opacity=".8"/>
  <path d="M365 151 C397 189 397 252 370 301" stroke="#A87832" stroke-width="2" opacity=".88"/>
  <circle cx="272" cy="130" r="6" fill="#A87832" stroke="none"/>
  <circle cx="315" cy="144" r="9" fill="#A87832" stroke="none"/>
  <circle cx="365" cy="151" r="8" fill="#A87832" stroke="none"/>
  <circle cx="329" cy="212" r="10" fill="#A87832" stroke="none"/>
  <circle cx="407" cy="204" r="11" fill="#A87832" stroke="none"/>
  <circle cx="386" cy="112" r="10" fill="#A87832" stroke="none"/>
</g></g><path d="M218.63 135.845C219.785 157.79 234.8 172.145 256.745 172.145C277.865 172.145 293.54 156.8 293.54 136.01C293.54 125.285 289.08500000000004 115.715 281.495 109.94C276.38 106.31 271.265 104.0 258.725 100.205C247.67000000000002 96.905 244.04 95.42 240.74 92.615C237.275 89.47999999999999 234.965 84.035 234.965 78.425C234.965 66.05 243.875 57.14 256.085 57.14C268.46 57.14 276.875 65.55499999999999 277.865 78.92H290.57C290.075 59.11999999999999 276.38 45.91999999999999 256.415 45.91999999999999C236.78 45.91999999999999 222.59 59.614999999999995 222.59 78.755C222.59 87.17 225.725 95.255 231.17000000000002 100.36999999999999C235.955 104.99 239.585 106.64 253.94 111.25999999999999C263.51 114.065 268.79 116.375 272.915 119.18C278.195 122.975 281.165 129.245 281.165 136.67000000000002C281.165 150.695 271.1 160.925 257.075 160.925C249.32 160.925 241.895 157.46 237.44 151.85C233.975 147.56 232.49 143.435 231.665 135.845Z" fill="#2B1D15"/>
<path d="M398.985 128.915C398.985 116.53999999999999 397.33500000000004 108.94999999999999 392.88 101.03C384.795 86.50999999999999 369.12 77.6 351.795 77.6C325.56 77.6 305.1 98.225 305.1 124.46000000000001C305.1 151.19 326.055 172.145 352.785 172.145C372.42 172.145 390.07500000000005 159.44 396.675 140.3H383.97C378.855 152.675 366.15000000000003 160.925 352.45500000000004 160.925C333.81 160.925 318.3 146.735 317.31 128.915ZM317.64000000000004 117.86C320.94 100.535 334.635 88.82 351.795 88.82C369.285 88.82 382.485 99.71 386.77500000000003 117.86Z" fill="#2B1D15"/>
<path d="M416.815 170.0H429.02500000000003V48.065H416.815Z" fill="#2B1D15"/>
<path d="M441.74 170.0H456.095L490.745 117.86L525.23 170.0H539.585L498.005 107.63L537.11 48.065H522.9200000000001L490.745 96.905L458.40500000000003 48.065H444.05L483.15500000000003 107.63Z" fill="#A87832"/>
</svg>
