<svg xmlns="http://www.w3.org/2000/svg" viewBox="0 0 512 580" role="img" aria-label="SelX">
<defs>
  <linearGradient id="selxGold" x1="0" y1="0" x2="1" y2="1">
    <stop offset="0" stop-color="#D8C4A8"/>
    <stop offset="0.52" stop-color="#C99B5D"/>
    <stop offset="1" stop-color="#A87832"/>
  </linearGradient>
  <linearGradient id="selxWarm" x1="0" y1="0" x2="1" y2="0">
    <stop offset="0" stop-color="#F7F2E8"/>
    <stop offset="0.68" stop-color="#D8C4A8"/>
    <stop offset="1" stop-color="#C99B5D"/>
  </linearGradient>
</defs>
<g transform="translate(138 4) scale(.56)"><g fill="none" stroke-linecap="round" stroke-linejoin="round">
  <path d="M421 86 C350 28 235 28 162 82 C107 123 87 181 101 233 C105 247 101 258 93 274 L69 317 C63 328 69 337 82 339 L101 342 C108 343 111 350 106 356 L98 365 C93 371 96 378 105 381 C99 388 101 397 110 401 C105 421 115 442 134 448 C157 455 181 440 205 444 C229 448 240 467 237 489 C232 523 193 548 132 558" stroke="#2B1D15" stroke-width="8.5"/>
  <path d="M386 104 C326 70 220 72 171 109 C143 130 145 154 175 164 C201 173 232 166 262 181 C312 206 332 254 317 303 C307 338 281 365 270 399 C255 447 271 504 363 557" stroke="#2B1D15" stroke-width="7.2"/>
  <path d="M273 130 C306 139 334 148 365 151" stroke="#A87832" stroke-width="2.1"/>
  <path d="M315 144 C351 179 354 229 329 271" stroke="#A87832" stroke-width="1.8" opacity=".8"/>
  <path d="M365 151 C397 189 397 252 370 301" stroke="#A87832" stroke-width="2" opacity=".88"/>
  <circle cx="272" cy="130" r="6" fill="#A87832" stroke="none"/>
  <circle cx="315" cy="144" r="9" fill="#A87832" stroke="none"/>
  <circle cx="365" cy="151" r="8" fill="#A87832" stroke="none"/>
  <circle cx="329" cy="212" r="10" fill="#A87832" stroke="none"/>
  <circle cx="407" cy="204" r="11" fill="#A87832" stroke="none"/>
  <circle cx="386" cy="112" r="10" fill="#A87832" stroke="none"/>
</g></g><path d="M109.18 465.67C110.51 490.94 127.8 507.47 153.07 507.47C177.39 507.47 195.44 489.8 195.44 465.86C195.44 453.51 190.31 442.49 181.57 435.84000000000003C175.68 431.65999999999997 169.79000000000002 429.0 155.35 424.63C142.62 420.83 138.44 419.12 134.64 415.89C130.65 412.28 127.99000000000001 406.01 127.99000000000001 399.55C127.99000000000001 385.3 138.25 375.03999999999996 152.31 375.03999999999996C166.56 375.03999999999996 176.25 384.73 177.39 400.12H192.01999999999998C191.45 377.32 175.68 362.12 152.69 362.12C130.08 362.12 113.74 377.89 113.74 399.93C113.74 409.62 117.35 418.93 123.62 424.82C129.13 430.14 133.31 432.03999999999996 149.84 437.36C160.86 440.59000000000003 166.94 443.25 171.69 446.48C177.76999999999998 450.85 181.19 458.07 181.19 466.62C181.19 482.77 169.6 494.55 153.45 494.55C144.52 494.55 135.97 490.56 130.84 484.1C126.85 479.16 125.14 474.41 124.19 465.67Z" fill="#2B1D15"/>
<path d="M316.71000000000004 457.69C316.71000000000004 443.44 314.81 434.7 309.68 425.58C300.37 408.86 282.32 398.6 262.37 398.6C232.16 398.6 208.6 422.35 208.6 452.56C208.6 483.34 232.73000000000002 507.47 263.51 507.47C286.12 507.47 306.45 492.84 314.05 470.8H299.42C293.53 485.05 278.9 494.55 263.13 494.55C241.66 494.55 223.8 478.21 222.66 457.69ZM223.04000000000002 444.96C226.84 425.01 242.61 411.52 262.37 411.52C282.51 411.52 297.71000000000004 424.06 302.65 444.96Z" fill="#2B1D15"/>
<path d="M337.09000000000003 505.0H351.15V364.59000000000003H337.09000000000003Z" fill="#2B1D15"/>
<path d="M365.64 505.0H382.17L422.07 444.96L461.78 505.0H478.31L430.43 433.18L475.46000000000004 364.59000000000003H459.12L422.07 420.83L384.83 364.59000000000003H368.3L413.33 433.18Z" fill="#A87832"/><g fill="#5B3A29"><path d="M0.912 550.0H1.8V541.132H0.912Z" transform="translate(85.318 0)"/><path d="M0.912 550.0H1.8V542.2L7.08 550.0H7.968V541.132H7.08V548.488L2.112 541.132H0.912Z" transform="translate(90.430 0)"/><path d="M2.112 550.0H3.0V541.936H5.0280000000000005V541.132H0.084V541.936H2.112Z" transform="translate(101.710 0)"/><path d="M0.912 550.0H5.76V549.196H1.8V545.92H5.628V545.116H1.8V541.936H5.76V541.132H0.912Z" transform="translate(109.222 0)"/><path d="M0.912 550.0H5.472V549.196H1.8V541.132H0.912Z" transform="translate(118.054 0)"/><path d="M0.912 550.0H1.8V541.132H0.912Z" transform="translate(125.998 0)"/><path d="M3.948 545.908V546.712H8.904C8.772 547.288 8.472 547.78 7.968 548.284C7.284 548.968 6.348 549.34 5.316 549.34C3.144 549.34 1.428 547.684 1.428 545.572C1.428 543.436 3.108 541.792 5.304 541.792C6.672 541.792 7.824 542.416 8.436 543.496H9.432C8.844 541.984 7.164000000000001 540.976 5.232 540.976C2.592 540.976 0.528 542.98 0.528 545.548C0.528 548.152 2.628 550.156 5.352 550.156C6.756 550.156 7.956 549.64 8.808 548.656C9.528 547.828 9.912 546.904 9.972 545.908Z" transform="translate(131.110 0)"/><path d="M0.912 550.0H5.76V549.196H1.8V545.92H5.628V545.116H1.8V541.936H5.76V541.132H0.912ZM1.212 540.34H2.3040000000000003L3.36 539.452L4.392 540.34H5.46L3.744 538.828H2.952Z" transform="translate(143.974 0)"/><path d="M0.912 550.0H1.8V542.2L7.08 550.0H7.968V541.132H7.08V548.488L2.112 541.132H0.912Z" transform="translate(152.806 0)"/><path d="M8.256 547.672C7.884 548.14 7.668 548.38 7.368 548.608C6.768 549.076 5.976 549.34 5.172 549.34C3.108 549.34 1.428 547.648 1.428 545.56C1.428 543.424 3.036 541.792 5.16 541.792C5.928 541.792 6.648000000000001 541.996 7.236 542.392C7.632000000000001 542.644 7.872 542.908 8.208 543.436H9.204C8.52 541.912 6.96 540.976 5.124 540.976C2.484 540.976 0.528 542.944 0.528 545.596C0.528 548.2 2.532 550.156 5.184 550.156C6.984 550.156 8.352 549.316 9.24 547.672Z" transform="translate(164.086 0)"/><path d="M0.912 550.0H1.8V541.132H0.912Z" transform="translate(176.242 0)"/><path d="M0.132 550.0H1.068L2.364 547.012H6.492L7.776 550.0H8.748L4.932 541.132H3.936ZM2.7 546.208 4.44 542.14 6.144 546.208Z" transform="translate(181.354 0)"/><path d="M0.912 550.0H1.8V545.836H6.396V550.0H7.284V541.132H6.396V545.032H1.8V541.132H0.912Z" transform="translate(198.358 0)"/><path d="M0.912 541.132V546.664C0.912 547.804 1.092 548.476 1.536 549.064C2.064 549.76 2.94 550.156 3.924 550.156C4.92 550.156 5.796 549.76 6.324 549.064C6.768 548.476 6.948 547.804 6.948 546.664V541.132H6.0600000000000005V546.664C6.0600000000000005 547.468 5.928 548.08 5.652 548.5C5.316 549.016 4.656 549.34 3.924 549.34C3.204 549.34 2.544 549.016 2.208 548.5C1.932 548.08 1.8 547.468 1.8 546.664V541.132Z" transform="translate(208.954 0)"/><path d="M0.912 550.0H1.8V542.104L5.124 550.0H5.892L9.228 542.104V550.0H10.116V541.132H8.736L5.5200000000000005 548.68L2.2920000000000003 541.132H0.912Z" transform="translate(219.214 0)"/><path d="M0.132 550.0H1.068L2.364 547.012H6.492L7.776 550.0H8.748L4.932 541.132H3.936ZM2.7 546.208 4.44 542.14 6.144 546.208Z" transform="translate(232.642 0)"/><path d="M0.912 550.0H1.8V542.2L7.08 550.0H7.968V541.132H7.08V548.488L2.112 541.132H0.912Z" transform="translate(243.922 0)"/><path d="M0.132 550.0H1.068L2.364 547.012H6.492L7.776 550.0H8.748L4.932 541.132H3.936ZM2.7 546.208 4.44 542.14 6.144 546.208Z" transform="translate(255.202 0)"/><path d="M1.092 550.804H1.98L3.036 548.488H2.148Z" transform="translate(266.482 0)"/><path d="M4.308 546.688C6.0120000000000005 546.508 6.924 545.572 6.924 543.976C6.924 542.872 6.456 542.032 5.5920000000000005 541.564C5.04 541.264 4.284 541.132 3.108 541.132H0.912V550.0H1.8V541.936H3.048C3.984 541.936 4.6080000000000005 542.032 5.088 542.26C5.688 542.548 6.024 543.148 6.024 543.952C6.024 544.96 5.5680000000000005 545.596 4.68 545.824C4.26 545.932 3.684 545.98 2.7 545.98L5.688 550.0H6.792Z" transform="translate(277.930 0)"/><path d="M0.912 550.0H5.76V549.196H1.8V545.92H5.628V545.116H1.8V541.936H5.76V541.132H0.912Z" transform="translate(287.614 0)"/><path d="M0.264 547.516C0.34800000000000003 549.112 1.44 550.156 3.036 550.156C4.572 550.156 5.712 549.04 5.712 547.528C5.712 546.748 5.388 546.052 4.836 545.632C4.464 545.368 4.0920000000000005 545.2 3.18 544.924C2.376 544.684 2.112 544.576 1.872 544.372C1.62 544.144 1.452 543.748 1.452 543.34C1.452 542.44 2.1 541.792 2.988 541.792C3.888 541.792 4.5 542.404 4.572 543.376H5.496C5.46 541.936 4.464 540.976 3.012 540.976C1.584 540.976 0.552 541.972 0.552 543.364C0.552 543.976 0.78 544.564 1.176 544.936C1.524 545.272 1.788 545.392 2.832 545.728C3.528 545.932 3.912 546.1 4.212 546.304C4.596 546.58 4.812 547.036 4.812 547.576C4.812 548.596 4.08 549.34 3.06 549.34C2.496 549.34 1.956 549.088 1.6320000000000001 548.68C1.3800000000000001 548.368 1.272 548.068 1.212 547.516Z" transform="translate(296.446 0)"/><path d="M0.912 541.132V546.664C0.912 547.804 1.092 548.476 1.536 549.064C2.064 549.76 2.94 550.156 3.924 550.156C4.92 550.156 5.796 549.76 6.324 549.064C6.768 548.476 6.948 547.804 6.948 546.664V541.132H6.0600000000000005V546.664C6.0600000000000005 547.468 5.928 548.08 5.652 548.5C5.316 549.016 4.656 549.34 3.924 549.34C3.204 549.34 2.544 549.016 2.208 548.5C1.932 548.08 1.8 547.468 1.8 546.664V541.132Z" transform="translate(304.822 0)"/><path d="M0.912 550.0H5.472V549.196H1.8V541.132H0.912Z" transform="translate(315.082 0)"/><path d="M2.112 550.0H3.0V541.936H5.0280000000000005V541.132H0.084V541.936H2.112Z" transform="translate(323.026 0)"/><path d="M0.132 550.0H1.068L2.364 547.012H6.492L7.776 550.0H8.748L4.932 541.132H3.936ZM2.7 546.208 4.44 542.14 6.144 546.208Z" transform="translate(330.538 0)"/><path d="M0.912 550.0H3.3000000000000003C4.632 550.0 5.5680000000000005 549.796 6.348 549.34C7.692 548.548 8.4 547.252 8.4 545.596C8.4 543.928 7.704 542.608 6.396 541.828C5.5440000000000005 541.324 4.6080000000000005 541.132 3.0 541.132H0.912ZM1.8 549.196V541.936H3.036C4.368 541.936 5.244 542.116 5.892 542.5C6.912 543.124 7.5 544.24 7.5 545.56C7.5 546.724 7.0440000000000005 547.744 6.228 548.404C5.5200000000000005 548.968 4.6080000000000005 549.196 3.036 549.196Z" transform="translate(341.818 0)"/><path d="M5.22 540.976C2.676 540.976 0.528 543.052 0.528 545.512C0.528 548.092 2.616 550.156 5.232 550.156C7.788 550.156 9.9 548.08 9.9 545.572C9.9 543.04 7.788 540.976 5.22 540.976ZM5.22 541.792C7.296 541.792 9.0 543.508 9.0 545.584C9.0 547.636 7.284 549.34 5.232 549.34C3.12 549.34 1.428 547.636 1.428 545.536C1.428 543.508 3.168 541.792 5.22 541.792Z" transform="translate(353.146 0)"/><path d="M0.264 547.516C0.34800000000000003 549.112 1.44 550.156 3.036 550.156C4.572 550.156 5.712 549.04 5.712 547.528C5.712 546.748 5.388 546.052 4.836 545.632C4.464 545.368 4.0920000000000005 545.2 3.18 544.924C2.376 544.684 2.112 544.576 1.872 544.372C1.62 544.144 1.452 543.748 1.452 543.34C1.452 542.44 2.1 541.792 2.988 541.792C3.888 541.792 4.5 542.404 4.572 543.376H5.496C5.46 541.936 4.464 540.976 3.012 540.976C1.584 540.976 0.552 541.972 0.552 543.364C0.552 543.976 0.78 544.564 1.176 544.936C1.524 545.272 1.788 545.392 2.832 545.728C3.528 545.932 3.912 546.1 4.212 546.304C4.596 546.58 4.812 547.036 4.812 547.576C4.812 548.596 4.08 549.34 3.06 549.34C2.496 549.34 1.956 549.088 1.6320000000000001 548.68C1.3800000000000001 548.368 1.272 548.068 1.212 547.516Z" transform="translate(365.974 0)"/><path d="M4.308 546.688C6.0120000000000005 546.508 6.924 545.572 6.924 543.976C6.924 542.872 6.456 542.032 5.5920000000000005 541.564C5.04 541.264 4.284 541.132 3.108 541.132H0.912V550.0H1.8V541.936H3.048C3.984 541.936 4.6080000000000005 542.032 5.088 542.26C5.688 542.548 6.024 543.148 6.024 543.952C6.024 544.96 5.5680000000000005 545.596 4.68 545.824C4.26 545.932 3.684 545.98 2.7 545.98L5.688 550.0H6.792Z" transform="translate(380.074 0)"/><path d="M0.912 550.0H5.76V549.196H1.8V545.92H5.628V545.116H1.8V541.936H5.76V541.132H0.912Z" transform="translate(389.758 0)"/><path d="M0.132 550.0H1.068L2.364 547.012H6.492L7.776 550.0H8.748L4.932 541.132H3.936ZM2.7 546.208 4.44 542.14 6.144 546.208Z" transform="translate(398.590 0)"/><path d="M0.912 550.0H1.8V541.132H0.912Z" transform="translate(409.870 0)"/><path d="M0.264 547.516C0.34800000000000003 549.112 1.44 550.156 3.036 550.156C4.572 550.156 5.712 549.04 5.712 547.528C5.712 546.748 5.388 546.052 4.836 545.632C4.464 545.368 4.0920000000000005 545.2 3.18 544.924C2.376 544.684 2.112 544.576 1.872 544.372C1.62 544.144 1.452 543.748 1.452 543.34C1.452 542.44 2.1 541.792 2.988 541.792C3.888 541.792 4.5 542.404 4.572 543.376H5.496C5.46 541.936 4.464 540.976 3.012 540.976C1.584 540.976 0.552 541.972 0.552 543.364C0.552 543.976 0.78 544.564 1.176 544.936C1.524 545.272 1.788 545.392 2.832 545.728C3.528 545.932 3.912 546.1 4.212 546.304C4.596 546.58 4.812 547.036 4.812 547.576C4.812 548.596 4.08 549.34 3.06 549.34C2.496 549.34 1.956 549.088 1.6320000000000001 548.68C1.3800000000000001 548.368 1.272 548.068 1.212 547.516Z" transform="translate(414.982 0)"/><path d="M1.212 550.0H2.1V548.488H1.212Z" transform="translate(423.358 0)"/></g>
</svg>
