<svg xmlns="http://www.w3.org/2000/svg" viewBox="0 0 650 225" role="img" aria-label="SelX">
<defs>
  <linearGradient id="selxGold" x1="0" y1="0" x2="1" y2="1">
    <stop offset="0" stop-color="#D8C4A8"/>
    <stop offset="0.52" stop-color="#C99B5D"/>
    <stop offset="1" stop-color="#A87832"/>
  </linearGradient>
  <linearGradient id="selxWarm" x1="0" y1="0" x2="1" y2="0">
    <stop offset="0" stop-color="#F7F2E8"/>
    <stop offset="0.68" stop-color="#D8C4A8"/>
    <stop offset="1" stop-color="#C99B5D"/>
  </linearGradient>
</defs>
<g transform="translate(16 -6) scale(.38)"><g fill="none" stroke-linecap="round" stroke-linejoin="round">
  <path d="M421 86 C350 28 235 28 162 82 C107 123 87 181 101 233 C105 247 101 258 93 274 L69 317 C63 328 69 337 82 339 L101 342 C108 343 111 350 106 356 L98 365 C93 371 96 378 105 381 C99 388 101 397 110 401 C105 421 115 442 134 448 C157 455 181 440 205 444 C229 448 240 467 237 489 C232 523 193 548 132 558" stroke="url(#selxWarm)" stroke-width="8.5"/>
  <path d="M386 104 C326 70 220 72 171 109 C143 130 145 154 175 164 C201 173 232 166 262 181 C312 206 332 254 317 303 C307 338 281 365 270 399 C255 447 271 504 363 557" stroke="url(#selxWarm)" stroke-width="7.2"/>
  <path d="M273 130 C306 139 334 148 365 151" stroke="url(#selxGold)" stroke-width="2.1"/>
  <path d="M315 144 C351 179 354 229 329 271" stroke="url(#selxGold)" stroke-width="1.8" opacity=".8"/>
  <path d="M365 151 C397 189 397 252 370 301" stroke="url(#selxGold)" stroke-width="2" opacity=".88"/>
  <circle cx="272" cy="130" r="6" fill="url(#selxGold)" stroke="none"/>
  <circle cx="315" cy="144" r="9" fill="url(#selxGold)" stroke="none"/>
  <circle cx="365" cy="151" r="8" fill="url(#selxGold)" stroke="none"/>
  <circle cx="329" cy="212" r="10" fill="url(#selxGold)" stroke="none"/>
  <circle cx="407" cy="204" r="11" fill="url(#selxGold)" stroke="none"/>
  <circle cx="386" cy="112" r="10" fill="url(#selxGold)" stroke="none"/>
</g></g><path d="M218.63 135.845C219.785 157.79 234.8 172.145 256.745 172.145C277.865 172.145 293.54 156.8 293.54 136.01C293.54 125.285 289.08500000000004 115.715 281.495 109.94C276.38 106.31 271.265 104.0 258.725 100.205C247.67000000000002 96.905 244.04 95.42 240.74 92.615C237.275 89.47999999999999 234.965 84.035 234.965 78.425C234.965 66.05 243.875 57.14 256.085 57.14C268.46 57.14 276.875 65.55499999999999 277.865 78.92H290.57C290.075 59.11999999999999 276.38 45.91999999999999 256.415 45.91999999999999C236.78 45.91999999999999 222.59 59.614999999999995 222.59 78.755C222.59 87.17 225.725 95.255 231.17000000000002 100.36999999999999C235.955 104.99 239.585 106.64 253.94 111.25999999999999C263.51 114.065 268.79 116.375 272.915 119.18C278.195 122.975 281.165 129.245 281.165 136.67000000000002C281.165 150.695 271.1 160.925 257.075 160.925C249.32 160.925 241.895 157.46 237.44 151.85C233.975 147.56 232.49 143.435 231.665 135.845Z" fill="#F7F2E8"/>
<path d="M398.985 128.915C398.985 116.53999999999999 397.33500000000004 108.94999999999999 392.88 101.03C384.795 86.50999999999999 369.12 77.6 351.795 77.6C325.56 77.6 305.1 98.225 305.1 124.46000000000001C305.1 151.19 326.055 172.145 352.785 172.145C372.42 172.145 390.07500000000005 159.44 396.675 140.3H383.97C378.855 152.675 366.15000000000003 160.925 352.45500000000004 160.925C333.81 160.925 318.3 146.735 317.31 128.915ZM317.64000000000004 117.86C320.94 100.535 334.635 88.82 351.795 88.82C369.285 88.82 382.485 99.71 386.77500000000003 117.86Z" fill="#F7F2E8"/>
<path d="M416.815 170.0H429.02500000000003V48.065H416.815Z" fill="#F7F2E8"/>
<path d="M441.74 170.0H456.095L490.745 117.86L525.23 170.0H539.585L498.005 107.63L537.11 48.065H522.9200000000001L490.745 96.905L458.40500000000003 48.065H444.05L483.15500000000003 107.63Z" fill="#A87832"/><g fill="#D8C4A8"><path d="M0.988 202.0H1.95V192.393H0.988Z" transform="translate(216.000 0)"/><path d="M0.988 202.0H1.95V193.55L7.67 202.0H8.632V192.393H7.67V200.362L2.288 192.393H0.988Z" transform="translate(221.738 0)"/><path d="M2.288 202.0H3.25V193.264H5.447V192.393H0.091V193.264H2.288Z" transform="translate(234.158 0)"/><path d="M0.988 202.0H6.239999999999999V201.129H1.95V197.58H6.0969999999999995V196.709H1.95V193.264H6.239999999999999V192.393H0.988Z" transform="translate(242.496 0)"/><path d="M0.988 202.0H5.928V201.129H1.95V192.393H0.988Z" transform="translate(252.264 0)"/><path d="M0.988 202.0H1.95V192.393H0.988Z" transform="translate(261.070 0)"/><path d="M4.277 197.567V198.438H9.645999999999999C9.503 199.062 9.177999999999999 199.595 8.632 200.141C7.891 200.882 6.877 201.285 5.7589999999999995 201.285C3.4059999999999997 201.285 1.547 199.491 1.547 197.203C1.547 194.889 3.367 193.108 5.7459999999999996 193.108C7.228 193.108 8.475999999999999 193.784 9.139 194.954H10.218C9.581 193.316 7.760999999999999 192.224 5.668 192.224C2.808 192.224 0.572 194.395 0.572 197.177C0.572 199.998 2.847 202.169 5.798 202.169C7.319 202.169 8.619 201.61 9.542 200.544C10.322 199.647 10.738 198.646 10.802999999999999 197.567Z" transform="translate(266.808 0)"/><path d="M0.988 202.0H6.239999999999999V201.129H1.95V197.58H6.0969999999999995V196.709H1.95V193.264H6.239999999999999V192.393H0.988ZM1.313 191.535H2.496L3.6399999999999997 190.573L4.758 191.535H5.915L4.056 189.897H3.198Z" transform="translate(280.944 0)"/><path d="M0.988 202.0H1.95V193.55L7.67 202.0H8.632V192.393H7.67V200.362L2.288 192.393H0.988Z" transform="translate(290.712 0)"/><path d="M8.943999999999999 199.478C8.541 199.985 8.307 200.245 7.981999999999999 200.492C7.332 200.999 6.473999999999999 201.285 5.603 201.285C3.367 201.285 1.547 199.452 1.547 197.19C1.547 194.876 3.2889999999999997 193.108 5.59 193.108C6.422 193.108 7.202 193.329 7.8389999999999995 193.758C8.267999999999999 194.031 8.528 194.317 8.892 194.889H9.971C9.23 193.238 7.54 192.224 5.551 192.224C2.691 192.224 0.572 194.356 0.572 197.229C0.572 200.05 2.743 202.169 5.616 202.169C7.566 202.169 9.048 201.259 10.01 199.478Z" transform="translate(303.132 0)"/><path d="M0.988 202.0H1.95V192.393H0.988Z" transform="translate(316.501 0)"/><path d="M0.143 202.0H1.157L2.561 198.763H7.0329999999999995L8.424 202.0H9.477L5.343 192.393H4.264ZM2.925 197.892 4.81 193.485 6.656 197.892Z" transform="translate(322.239 0)"/><path d="M0.988 202.0H1.95V197.489H6.928999999999999V202.0H7.891V192.393H6.928999999999999V196.618H1.95V192.393H0.988Z" transform="translate(341.060 0)"/><path d="M0.988 192.393V198.386C0.988 199.621 1.183 200.349 1.664 200.986C2.2359999999999998 201.74 3.185 202.169 4.2509999999999994 202.169C5.33 202.169 6.279 201.74 6.851 200.986C7.332 200.349 7.526999999999999 199.621 7.526999999999999 198.386V192.393H6.5649999999999995V198.386C6.5649999999999995 199.257 6.422 199.92 6.122999999999999 200.375C5.7589999999999995 200.934 5.044 201.285 4.2509999999999994 201.285C3.4709999999999996 201.285 2.756 200.934 2.392 200.375C2.093 199.92 1.95 199.257 1.95 198.386V192.393Z" transform="translate(352.739 0)"/><path d="M0.988 202.0H1.95V193.446L5.551 202.0H6.383L9.997 193.446V202.0H10.959V192.393H9.464L5.9799999999999995 200.57L2.483 192.393H0.988Z" transform="translate(364.054 0)"/><path d="M0.143 202.0H1.157L2.561 198.763H7.0329999999999995L8.424 202.0H9.477L5.343 192.393H4.264ZM2.925 197.892 4.81 193.485 6.656 197.892Z" transform="translate(378.801 0)"/><path d="M0.988 202.0H1.95V193.55L7.67 202.0H8.632V192.393H7.67V200.362L2.288 192.393H0.988Z" transform="translate(391.221 0)"/><path d="M0.143 202.0H1.157L2.561 198.763H7.0329999999999995L8.424 202.0H9.477L5.343 192.393H4.264ZM2.925 197.892 4.81 193.485 6.656 197.892Z" transform="translate(403.641 0)"/><path d="M1.183 202.871H2.145L3.2889999999999997 200.362H2.327Z" transform="translate(416.061 0)"/><path d="M4.667 198.412C6.513 198.217 7.5009999999999994 197.203 7.5009999999999994 195.474C7.5009999999999994 194.278 6.994 193.368 6.058 192.861C5.46 192.536 4.641 192.393 3.367 192.393H0.988V202.0H1.95V193.264H3.302C4.316 193.264 4.992 193.368 5.512 193.615C6.162 193.927 6.526 194.577 6.526 195.448C6.526 196.54 6.032 197.229 5.069999999999999 197.476C4.615 197.593 3.9909999999999997 197.645 2.925 197.645L6.162 202.0H7.358Z" transform="translate(428.863 0)"/><path d="M0.988 202.0H6.239999999999999V201.129H1.95V197.58H6.0969999999999995V196.709H1.95V193.264H6.239999999999999V192.393H0.988Z" transform="translate(439.554 0)"/><path d="M0.286 199.309C0.377 201.038 1.5599999999999998 202.169 3.2889999999999997 202.169C4.952999999999999 202.169 6.188 200.96 6.188 199.322C6.188 198.477 5.837 197.723 5.239 197.268C4.835999999999999 196.982 4.433 196.8 3.445 196.501C2.574 196.241 2.288 196.124 2.028 195.903C1.755 195.656 1.573 195.227 1.573 194.785C1.573 193.81 2.275 193.108 3.2369999999999997 193.108C4.212 193.108 4.875 193.77100000000002 4.952999999999999 194.824H5.954C5.915 193.264 4.835999999999999 192.224 3.263 192.224C1.716 192.224 0.598 193.303 0.598 194.811C0.598 195.474 0.845 196.111 1.274 196.514C1.651 196.878 1.9369999999999998 197.008 3.068 197.372C3.8219999999999996 197.593 4.2379999999999995 197.775 4.563 197.996C4.979 198.295 5.213 198.789 5.213 199.374C5.213 200.479 4.42 201.285 3.315 201.285C2.7039999999999997 201.285 2.1189999999999998 201.012 1.768 200.57C1.4949999999999999 200.232 1.378 199.907 1.313 199.309Z" transform="translate(449.322 0)"/><path d="M0.988 192.393V198.386C0.988 199.621 1.183 200.349 1.664 200.986C2.2359999999999998 201.74 3.185 202.169 4.2509999999999994 202.169C5.33 202.169 6.279 201.74 6.851 200.986C7.332 200.349 7.526999999999999 199.621 7.526999999999999 198.386V192.393H6.5649999999999995V198.386C6.5649999999999995 199.257 6.422 199.92 6.122999999999999 200.375C5.7589999999999995 200.934 5.044 201.285 4.2509999999999994 201.285C3.4709999999999996 201.285 2.756 200.934 2.392 200.375C2.093 199.92 1.95 199.257 1.95 198.386V192.393Z" transform="translate(458.596 0)"/><path d="M0.988 202.0H5.928V201.129H1.95V192.393H0.988Z" transform="translate(469.911 0)"/><path d="M2.288 202.0H3.25V193.264H5.447V192.393H0.091V193.264H2.288Z" transform="translate(478.717 0)"/><path d="M0.143 202.0H1.157L2.561 198.763H7.0329999999999995L8.424 202.0H9.477L5.343 192.393H4.264ZM2.925 197.892 4.81 193.485 6.656 197.892Z" transform="translate(487.055 0)"/><path d="M0.988 202.0H3.5749999999999997C5.018 202.0 6.032 201.779 6.877 201.285C8.333 200.427 9.1 199.023 9.1 197.229C9.1 195.422 8.346 193.992 6.928999999999999 193.147C6.005999999999999 192.601 4.992 192.393 3.25 192.393H0.988ZM1.95 201.129V193.264H3.2889999999999997C4.732 193.264 5.681 193.459 6.383 193.875C7.4879999999999995 194.551 8.125 195.76 8.125 197.19C8.125 198.451 7.630999999999999 199.556 6.747 200.271C5.9799999999999995 200.882 4.992 201.129 3.2889999999999997 201.129Z" transform="translate(499.475 0)"/><path d="M5.654999999999999 192.224C2.899 192.224 0.572 194.473 0.572 197.138C0.572 199.933 2.834 202.169 5.668 202.169C8.437 202.169 10.725 199.92 10.725 197.203C10.725 194.46 8.437 192.224 5.654999999999999 192.224ZM5.654999999999999 193.108C7.904 193.108 9.75 194.967 9.75 197.216C9.75 199.439 7.891 201.285 5.668 201.285C3.38 201.285 1.547 199.439 1.547 197.164C1.547 194.967 3.432 193.108 5.654999999999999 193.108Z" transform="translate(511.947 0)"/><path d="M0.286 199.309C0.377 201.038 1.5599999999999998 202.169 3.2889999999999997 202.169C4.952999999999999 202.169 6.188 200.96 6.188 199.322C6.188 198.477 5.837 197.723 5.239 197.268C4.835999999999999 196.982 4.433 196.8 3.445 196.501C2.574 196.241 2.288 196.124 2.028 195.903C1.755 195.656 1.573 195.227 1.573 194.785C1.573 193.81 2.275 193.108 3.2369999999999997 193.108C4.212 193.108 4.875 193.77100000000002 4.952999999999999 194.824H5.954C5.915 193.264 4.835999999999999 192.224 3.263 192.224C1.716 192.224 0.598 193.303 0.598 194.811C0.598 195.474 0.845 196.111 1.274 196.514C1.651 196.878 1.9369999999999998 197.008 3.068 197.372C3.8219999999999996 197.593 4.2379999999999995 197.775 4.563 197.996C4.979 198.295 5.213 198.789 5.213 199.374C5.213 200.479 4.42 201.285 3.315 201.285C2.7039999999999997 201.285 2.1189999999999998 201.012 1.768 200.57C1.4949999999999999 200.232 1.378 199.907 1.313 199.309Z" transform="translate(526.044 0)"/><path d="M4.667 198.412C6.513 198.217 7.5009999999999994 197.203 7.5009999999999994 195.474C7.5009999999999994 194.278 6.994 193.368 6.058 192.861C5.46 192.536 4.641 192.393 3.367 192.393H0.988V202.0H1.95V193.264H3.302C4.316 193.264 4.992 193.368 5.512 193.615C6.162 193.927 6.526 194.577 6.526 195.448C6.526 196.54 6.032 197.229 5.069999999999999 197.476C4.615 197.593 3.9909999999999997 197.645 2.925 197.645L6.162 202.0H7.358Z" transform="translate(541.719 0)"/><path d="M0.988 202.0H6.239999999999999V201.129H1.95V197.58H6.0969999999999995V196.709H1.95V193.264H6.239999999999999V192.393H0.988Z" transform="translate(552.410 0)"/><path d="M0.143 202.0H1.157L2.561 198.763H7.0329999999999995L8.424 202.0H9.477L5.343 192.393H4.264ZM2.925 197.892 4.81 193.485 6.656 197.892Z" transform="translate(562.178 0)"/><path d="M0.988 202.0H1.95V192.393H0.988Z" transform="translate(574.598 0)"/><path d="M0.286 199.309C0.377 201.038 1.5599999999999998 202.169 3.2889999999999997 202.169C4.952999999999999 202.169 6.188 200.96 6.188 199.322C6.188 198.477 5.837 197.723 5.239 197.268C4.835999999999999 196.982 4.433 196.8 3.445 196.501C2.574 196.241 2.288 196.124 2.028 195.903C1.755 195.656 1.573 195.227 1.573 194.785C1.573 193.81 2.275 193.108 3.2369999999999997 193.108C4.212 193.108 4.875 193.77100000000002 4.952999999999999 194.824H5.954C5.915 193.264 4.835999999999999 192.224 3.263 192.224C1.716 192.224 0.598 193.303 0.598 194.811C0.598 195.474 0.845 196.111 1.274 196.514C1.651 196.878 1.9369999999999998 197.008 3.068 197.372C3.8219999999999996 197.593 4.2379999999999995 197.775 4.563 197.996C4.979 198.295 5.213 198.789 5.213 199.374C5.213 200.479 4.42 201.285 3.315 201.285C2.7039999999999997 201.285 2.1189999999999998 201.012 1.768 200.57C1.4949999999999999 200.232 1.378 199.907 1.313 199.309Z" transform="translate(580.336 0)"/><path d="M1.313 202.0H2.275V200.362H1.313Z" transform="translate(589.610 0)"/></g>
</svg>
