<svg xmlns="http://www.w3.org/2000/svg" viewBox="0 0 440 230" role="img" aria-label="SelX">
<defs>
  <linearGradient id="selxGold" x1="0" y1="0" x2="1" y2="1">
    <stop offset="0" stop-color="#D8C4A8"/>
    <stop offset="0.52" stop-color="#C99B5D"/>
    <stop offset="1" stop-color="#A87832"/>
  </linearGradient>
  <linearGradient id="selxWarm" x1="0" y1="0" x2="1" y2="0">
    <stop offset="0" stop-color="#F7F2E8"/>
    <stop offset="0.68" stop-color="#D8C4A8"/>
    <stop offset="1" stop-color="#C99B5D"/>
  </linearGradient>
</defs>
<path d="M24.509999999999998 147.565C25.945 174.83 44.599999999999994 192.665 71.865 192.665C98.10499999999999 192.665 117.58 173.6 117.58 147.77C117.58 134.445 112.04499999999999 122.555 102.615 115.38000000000001C96.25999999999999 110.87 89.905 108.0 74.32499999999999 103.28500000000001C60.589999999999996 99.185 56.08 97.34 51.98 93.855C47.675 89.96000000000001 44.805 83.19500000000001 44.805 76.22500000000001C44.805 60.849999999999994 55.875 49.78 71.04499999999999 49.78C86.42 49.78 96.875 60.235000000000014 98.10499999999999 76.84H113.89C113.27499999999999 52.24000000000001 96.25999999999999 35.84 71.455 35.84C47.06 35.84 29.43 52.85500000000002 29.43 76.635C29.43 87.09 33.325 97.135 40.09 103.49000000000001C46.035 109.23 50.545 111.28 68.38 117.02000000000001C80.27 120.50500000000001 86.83 123.375 91.955 126.86000000000001C98.515 131.575 102.205 139.365 102.205 148.59C102.205 166.015 89.7 178.725 72.275 178.725C62.64 178.725 53.415 174.42000000000002 47.879999999999995 167.45C43.575 162.12 41.730000000000004 156.995 40.705 147.565Z" fill="#2B1D15"/>
<path d="M248.34499999999997 138.955C248.34499999999997 123.58 246.295 114.15 240.76 104.31C230.71499999999997 86.27000000000001 211.23999999999998 75.2 189.71499999999997 75.2C157.12 75.2 131.7 100.825 131.7 133.42000000000002C131.7 166.63 157.73499999999999 192.665 190.945 192.665C215.33999999999997 192.665 237.27499999999998 176.88 245.47499999999997 153.1H229.69C223.33499999999998 168.475 207.54999999999998 178.725 190.53499999999997 178.725C167.36999999999998 178.725 148.1 161.095 146.86999999999998 138.955ZM147.27999999999997 125.22C151.38 103.69500000000001 168.39499999999998 89.14 189.71499999999997 89.14C211.445 89.14 227.84499999999997 102.67 233.17499999999998 125.22Z" fill="#2B1D15"/>
<path d="M270.255 190.0H285.42499999999995V38.504999999999995H270.255Z" fill="#2B1D15"/>
<path d="M300.97999999999996 190.0H318.815L361.86499999999995 125.22L404.71 190.0H422.54499999999996L370.885 112.51L419.46999999999997 38.504999999999995H401.84L361.86499999999995 99.185L321.68499999999995 38.504999999999995H303.84999999999997L352.43499999999995 112.51Z" fill="#A87832"/>
</svg>
